<svg width="50" height="50" viewBox="0 0 50 50" fill="none" xmlns="http://www.w3.org/2000/svg">
<g clip-path="url(#clip0)">
<path d="M48.877 41.3574H46.4333C46.6216 40.9907 46.7285 40.5756 46.7285 40.1358L46.7277 20.2632C46.7277 19.8586 46.3998 19.5308 45.9953 19.5308C45.5907 19.5308 45.2629 19.8587 45.2629 20.2632L45.2637 40.1358C45.2637 40.8089 44.7161 41.3565 44.043 41.3565L5.95801 41.3574C5.28486 41.3574 4.7373 40.8099 4.7373 40.1367L4.73633 14.7471C4.73633 14.0739 5.28389 13.5264 5.95703 13.5264L25.3915 13.5255C25.1396 13.97 25.1021 14.5103 25.2999 14.9904L22.7038 14.9905C22.7023 14.9905 22.7009 14.9903 22.6994 14.9903H21.3737C21.3717 14.9903 21.3697 14.9905 21.3678 14.9905L6.93359 14.9912C6.529 14.9912 6.20117 15.3192 6.20117 15.7237L6.20186 31.1916C6.20186 31.5962 6.52979 31.924 6.93428 31.924C7.33887 31.924 7.6667 31.5961 7.6667 31.1916L7.66602 16.4561L19.6942 16.4555C19.5943 16.8546 19.4825 17.3429 19.4295 17.7193C19.4208 17.7813 19.3816 17.8377 19.3247 17.8705L18.0999 18.576C18.0429 18.609 17.974 18.6149 17.9154 18.5911C17.4995 18.4235 16.905 18.2475 16.4793 18.1294C15.7415 17.9247 14.9578 18.2444 14.5745 18.9067L13.9126 20.0504C13.5281 20.7147 13.6431 21.5539 14.192 22.0913C14.5065 22.3991 14.9555 22.824 15.309 23.0994C15.358 23.1375 15.3872 23.1992 15.3872 23.2646V24.6738C15.3872 24.7391 15.3579 24.801 15.309 24.8391C14.9555 25.1144 14.5064 25.5393 14.192 25.8471C13.6431 26.3845 13.5281 27.2239 13.9126 27.888L14.5745 29.0318C14.9578 29.6941 15.7411 30.0141 16.4795 29.8089C16.905 29.6909 17.4995 29.515 17.9157 29.3472C17.9737 29.3238 18.0427 29.3294 18.0998 29.3623L19.3247 30.0678C19.3816 30.1006 19.4208 30.1572 19.4295 30.2191C19.492 30.6623 19.636 31.2619 19.7459 31.6866C19.9379 32.4293 20.6072 32.9481 21.3736 32.9481H22.6993C23.4657 32.9481 24.1351 32.4293 24.327 31.6867C24.4369 31.2618 24.581 30.6623 24.6435 30.2191C24.6522 30.1572 24.6914 30.1006 24.7482 30.0678L25.9732 29.3623C26.0303 29.3294 26.099 29.3237 26.1575 29.3473C26.5734 29.515 27.168 29.6909 27.5937 29.809C28.3313 30.0134 29.1151 29.6941 29.4984 29.0318L30.1604 27.888C30.5448 27.2238 30.4299 26.3845 29.881 25.8471C29.5664 25.5393 29.1175 25.1144 28.764 24.8392C28.7149 24.8009 28.6856 24.7391 28.6856 24.6738V23.2646C28.6856 23.1992 28.7148 23.1374 28.7639 23.0993C29.1174 22.824 29.5664 22.3991 29.8809 22.0913C30.4298 21.5539 30.5447 20.7146 30.1603 20.0504L29.4983 18.9067C29.115 18.2444 28.3318 17.9245 27.5934 18.1295C27.1679 18.2475 26.5733 18.4235 26.1571 18.5912C26.0991 18.6145 26.0302 18.6089 25.973 18.5761L24.748 17.8704C24.6912 17.8377 24.6521 17.7813 24.6434 17.7194C24.5902 17.3429 24.4784 16.8544 24.3786 16.4553L26.1355 16.4552C26.5398 17.0364 27.2723 17.3063 27.9649 17.1138C28.3906 16.9957 28.9854 16.8197 29.4012 16.6521C29.4592 16.6287 29.5281 16.6343 29.5853 16.6672L30.8102 17.3727C30.8671 17.4055 30.9062 17.462 30.9149 17.524C30.9775 17.9672 31.1215 18.5668 31.2313 18.9915C31.4233 19.7342 32.0927 20.253 32.8591 20.253H34.1848C34.9512 20.253 35.6205 19.7342 35.8124 18.9916C35.9224 18.5667 36.0665 17.9672 36.1289 17.524C36.1377 17.462 36.1769 17.4055 36.2337 17.3727L37.4586 16.6672C37.5158 16.6343 37.5846 16.6285 37.643 16.6522C38.0589 16.8198 38.6534 16.9958 39.0791 17.1139C39.7714 17.3058 40.504 17.0364 40.9084 16.4552H42.3328L42.3338 38.4269L7.66699 38.4278L7.6668 34.3529C7.6668 33.9483 7.33887 33.6204 6.93438 33.6204C6.52979 33.6204 6.20195 33.9484 6.20195 34.3529L6.20215 39.1602C6.20215 39.5648 6.53008 39.8926 6.93457 39.8926L43.0664 39.8916C43.2606 39.8916 43.447 39.8145 43.5844 39.6771C43.7217 39.5398 43.7988 39.3535 43.7988 39.1592L43.7979 15.7227C43.7979 15.3181 43.4699 14.9903 43.0654 14.9903H41.7442C41.9421 14.5102 41.9044 13.9699 41.6525 13.5254H44.042C44.7151 13.5254 45.2627 14.073 45.2627 14.7461L45.2628 17.1564C45.2628 17.561 45.5907 17.8888 45.9952 17.8888C46.3998 17.8888 46.7276 17.5609 46.7276 17.1564L46.7275 14.7461C46.7275 13.2654 45.5228 12.0606 44.042 12.0606H40.1884C40.1778 12.0349 40.1713 12.0073 40.1713 11.9784V10.5693C40.1713 10.5039 40.2005 10.4422 40.2497 10.404C40.6031 10.1285 41.0521 9.70373 41.3666 9.39602C41.9155 8.85862 42.0305 8.01926 41.646 7.3551L40.9841 6.21135C40.6008 5.54905 39.8174 5.22903 39.0791 5.4342C38.6531 5.55237 38.0582 5.72834 37.6429 5.89592C37.5849 5.91917 37.5159 5.9136 37.4588 5.88079L36.2338 5.17512C36.177 5.14241 36.1378 5.08596 36.1291 5.02405C36.0665 4.5804 35.9225 3.98098 35.8127 3.55647C35.6207 2.81379 34.9514 2.29504 34.185 2.29504H32.8593C32.0929 2.29504 31.4235 2.81379 31.2316 3.55637C31.1218 3.98108 30.9776 4.5804 30.9151 5.02395C30.9064 5.08596 30.8673 5.14241 30.8104 5.17522L29.5855 5.88069C29.5282 5.91379 29.4594 5.91936 29.4014 5.89592C28.9864 5.72854 28.3913 5.55237 27.9649 5.43411C27.2271 5.22952 26.4435 5.54905 26.0602 6.21135L25.3982 7.3551C25.0138 8.01936 25.1287 8.85862 25.6776 9.39602C25.9919 9.70364 26.4407 10.1282 26.7946 10.4041C26.8437 10.4422 26.8729 10.5039 26.8729 10.5693V11.9784C26.8729 12.0072 26.8663 12.0349 26.8558 12.0606L5.95703 12.0615C4.47627 12.0615 3.27148 13.2663 3.27148 14.7471L3.27246 40.1367C3.27246 40.5762 3.3793 40.9909 3.56719 41.3574H1.12305C0.503809 41.3574 0 41.8613 0 42.4805V44.4336C0 46.2375 1.46758 47.7051 3.27148 47.7051H37.4868C37.8914 47.7051 38.2192 47.3773 38.2192 46.9727C38.2192 46.5681 37.8914 46.2403 37.4868 46.2403H3.27148C2.27529 46.2403 1.46484 45.4298 1.46484 44.4336V42.8223H19.7754V43.2617C19.7754 44.3117 20.6297 45.166 21.6797 45.166H28.3203C29.3703 45.166 30.2246 44.3117 30.2246 43.2617V42.8223H48.5352V44.4336C48.5352 45.4298 47.7247 46.2403 46.7285 46.2403H40.648C40.2435 46.2403 39.9156 46.5681 39.9156 46.9727C39.9156 47.3773 40.2435 47.7051 40.648 47.7051H46.7285C48.5324 47.7051 50 46.2375 50 44.4336V42.4805C50 41.8613 49.4962 41.3574 48.877 41.3574ZM22.9089 16.6184C23.0508 17.1672 23.1517 17.6308 23.193 17.9239C23.2653 18.4367 23.5658 18.8799 24.0172 19.1398L25.2422 19.8454C25.6928 20.1048 26.226 20.1428 26.7051 19.9496C26.9803 19.8387 27.4349 19.6936 27.9848 19.5409C28.0802 19.5143 28.1812 19.5552 28.2306 19.6404L28.8925 20.7841C28.9414 20.8686 28.9265 20.9757 28.8561 21.0446C28.4497 21.4424 28.0972 21.7618 27.8636 21.9438C27.4551 22.262 27.2208 22.7434 27.2208 23.2646V24.6738C27.2208 25.1948 27.455 25.6763 27.8636 25.9946C28.0973 26.1766 28.4497 26.496 28.8561 26.8939C28.9265 26.9627 28.9414 27.0698 28.8925 27.1543L28.2306 28.2981C28.1812 28.3831 28.0798 28.4237 27.985 28.3976C27.4348 28.2449 26.9803 28.0997 26.7053 27.9889C26.2257 27.7955 25.6925 27.8335 25.242 28.0931L24.0171 28.7986C23.5656 29.0586 23.2652 29.5019 23.1929 30.0146V30.0147C23.1516 30.3076 23.0507 30.7712 22.9087 31.3201C22.8839 31.4161 22.7978 31.4833 22.6992 31.4833H21.3735C21.275 31.4833 21.1889 31.4161 21.164 31.32C21.0221 30.7712 20.9212 30.3076 20.8799 30.0146C20.8075 29.5019 20.5071 29.0586 20.0557 28.7986L18.8309 28.0931C18.5701 27.9429 18.2818 27.8669 17.9923 27.8669C17.7812 27.8669 17.5696 27.9073 17.3677 27.9888C17.0925 28.0997 16.6379 28.2448 16.088 28.3975C15.9924 28.4242 15.8914 28.3831 15.8422 28.2981L15.1803 27.1543C15.1313 27.0698 15.1463 26.9627 15.2167 26.8939C15.623 26.496 15.9756 26.1766 16.2093 25.9945C16.6178 25.6762 16.852 25.1948 16.852 24.6738V23.2646C16.852 22.7434 16.6177 22.2619 16.2092 21.9439C15.9755 21.7618 15.623 21.4424 15.2167 21.0446C15.1463 20.9757 15.1313 20.8686 15.1803 20.7841L15.8422 19.6404C15.8915 19.5553 15.9931 19.5147 16.0878 19.5408C16.638 19.6935 17.0925 19.8387 17.3675 19.9495C17.8467 20.1428 18.3799 20.1049 18.8308 19.8453L20.0556 19.1399C20.507 18.8799 20.8075 18.4367 20.8799 17.9238C20.9212 17.6308 21.0221 17.1672 21.1641 16.6183C21.1886 16.5233 21.2732 16.4568 21.3704 16.4554L22.7015 16.4553C22.7992 16.4564 22.8842 16.523 22.9089 16.6184ZM26.7024 8.34924C26.632 8.2804 26.6171 8.17327 26.666 8.08879L27.3279 6.94504C27.3771 6.85998 27.4786 6.81936 27.5735 6.84553C28.1246 6.99836 28.579 7.14358 28.8532 7.25422C29.3324 7.44758 29.8657 7.4096 30.3165 7.15002L31.5413 6.44456C31.9928 6.18459 32.2933 5.74143 32.3656 5.22844C32.4069 4.93528 32.5078 4.4717 32.6498 3.92297C32.6746 3.82698 32.7607 3.75979 32.8593 3.75979H34.185C34.2835 3.75979 34.3696 3.82698 34.3945 3.92307C34.5364 4.4717 34.6373 4.93528 34.6786 5.22854C34.751 5.74143 35.0515 6.18459 35.5028 6.44446L36.7279 7.15012C37.1786 7.4096 37.7118 7.44768 38.1909 7.25422C38.4654 7.14348 38.9199 6.99846 39.4705 6.84563C39.5657 6.81897 39.6671 6.85989 39.7163 6.94504L40.3782 8.08879C40.4271 8.17327 40.4122 8.2804 40.3418 8.34924C39.9355 8.747 39.583 9.06653 39.3496 9.24836C38.9409 9.56663 38.7065 10.048 38.7065 10.5693V11.9784C38.7065 12.4996 38.9408 12.9811 39.3493 13.2992C39.5831 13.4813 39.9355 13.8008 40.3418 14.1986C40.4122 14.2674 40.4271 14.3745 40.3782 14.459L39.7163 15.6028C39.6671 15.6878 39.5656 15.7284 39.4707 15.7023C38.9205 15.5496 38.466 15.4044 38.191 15.2936C37.7119 15.1003 37.1784 15.1381 36.7277 15.3978L35.5028 16.1032C35.0514 16.3633 34.751 16.8066 34.6786 17.3193V17.3194C34.6373 17.6123 34.5364 18.0759 34.3944 18.6248C34.3696 18.7208 34.2835 18.788 34.185 18.788H32.8593C32.7607 18.788 32.6746 18.7208 32.6497 18.6247C32.5078 18.0759 32.4069 17.6123 32.3656 17.3193C32.2933 16.8066 31.9929 16.3633 31.5414 16.1032L30.3166 15.3978C30.0559 15.2476 29.7676 15.1716 29.478 15.1716C29.267 15.1716 29.0554 15.212 28.8534 15.2935C28.5786 15.4043 28.124 15.5494 27.5737 15.7022C27.4783 15.7288 27.3771 15.6879 27.3279 15.6028L27.1982 15.3786C27.1941 15.3709 27.1896 15.3636 27.1853 15.3562L26.666 14.459C26.6171 14.3745 26.632 14.2674 26.7024 14.1986C27.1085 13.801 27.461 13.4816 27.695 13.2991C28.1035 12.9809 28.3377 12.4995 28.3377 11.9784V10.5693C28.3377 10.0481 28.1034 9.56663 27.695 9.24856C27.4609 9.06624 27.1085 8.7468 26.7024 8.34924ZM28.7598 43.2617C28.7598 43.504 28.5626 43.7012 28.3203 43.7012H21.6797C21.4374 43.7012 21.2402 43.504 21.2402 43.2617V42.8223H28.7598V43.2617Z" fill="#014B85"/>
<path d="M33.5222 15.2623C35.7258 15.2623 37.5187 13.4732 37.5187 11.2738C37.5187 9.07462 35.7259 7.28546 33.5222 7.28546C31.3185 7.28546 29.5257 9.07462 29.5257 11.2738C29.5257 13.4732 31.3185 15.2623 33.5222 15.2623ZM32.3809 13.5254H34.6635C34.3202 13.6989 33.9326 13.7975 33.5222 13.7975C33.1117 13.7975 32.724 13.6989 32.3809 13.5254ZM33.5222 8.7504C34.9182 8.7504 36.0538 9.88243 36.0538 11.2739C36.0538 11.5486 36.009 11.8129 35.9272 12.0607H31.1172C31.0355 11.8129 30.9905 11.5486 30.9905 11.2739C30.9905 9.88234 32.1262 8.7504 33.5222 8.7504Z" fill="#014B85"/>
<path d="M18.04 23.9692C18.04 26.1685 19.8328 27.9576 22.0365 27.9576C24.2402 27.9576 26.033 26.1685 26.033 23.9692C26.033 21.7699 24.2402 19.9808 22.0365 19.9808C19.8328 19.9808 18.04 21.77 18.04 23.9692ZM24.5682 23.9692C24.5682 25.3607 23.4325 26.4928 22.0365 26.4928C20.6405 26.4928 19.5049 25.3607 19.5049 23.9692C19.5049 22.5776 20.6405 21.4456 22.0365 21.4456C23.4325 21.4456 24.5682 22.5776 24.5682 23.9692Z" fill="#014B85"/>
</g>
<defs>
<clipPath id="clip0">
<rect width="50" height="50" fill="white"/>
</clipPath>
</defs>
</svg>
