<svg width="512" height="512" viewBox="0 0 512 512" fill="none" xmlns="http://www.w3.org/2000/svg">
<g clip-path="url(#clip0)">
<path d="M58.9612 187.547C60.4222 189.008 62.3401 189.742 64.2581 189.742C66.1761 189.742 68.0941 189.011 69.5589 187.547C72.4847 184.621 72.4847 179.875 69.5589 176.949L51.3635 158.754L69.5589 140.562C72.4847 137.632 72.4847 132.89 69.5589 129.964C66.6331 127.039 61.887 127.039 58.9612 129.964L35.4689 153.457C34.0627 154.863 33.2736 156.769 33.2736 158.754C33.2736 160.742 34.0627 162.648 35.4689 164.054L58.9612 187.547Z" fill="#04DBEC"/>
<path d="M133.321 158.754L115.125 176.949C112.2 179.875 112.2 184.621 115.129 187.547C116.59 189.008 118.508 189.742 120.426 189.742C122.344 189.742 124.262 189.008 125.723 187.547L149.219 164.05C152.145 161.125 152.145 156.379 149.219 153.457L125.723 129.96C122.797 127.035 118.055 127.035 115.129 129.96C112.2 132.89 112.2 137.632 115.129 140.558L133.321 158.754Z" fill="#04DBEC"/>
<path d="M81.1722 189.222C82.0706 189.574 83.0003 189.742 83.9105 189.742C86.9027 189.742 89.7269 187.937 90.8871 184.988L109.344 138C110.86 134.148 108.961 129.8 105.11 128.285C101.262 126.773 96.9105 128.667 95.3988 132.519L76.9378 179.508C75.4261 183.359 77.3206 187.711 81.1722 189.222Z" fill="#04DBEC"/>
<path d="M45.008 233.703H95.4887C99.6254 233.703 102.981 230.348 102.981 226.207C102.981 222.07 99.6254 218.715 95.4887 218.715H45.008C40.8674 218.715 37.5158 222.07 37.5158 226.207C37.5158 230.348 40.8674 233.703 45.008 233.703Z" fill="#04DBEC"/>
<path d="M211.755 218.715H123.004C118.868 218.715 115.512 222.07 115.512 226.207C115.512 230.348 118.868 233.703 123.004 233.703H211.755C215.895 233.703 219.251 230.348 219.251 226.207C219.251 222.07 215.895 218.715 211.755 218.715Z" fill="#04DBEC"/>
<path d="M45.008 265.309H66.512C70.6487 265.309 74.0042 261.953 74.0042 257.813C74.0042 253.676 70.6487 250.32 66.512 250.32H45.008C40.8674 250.32 37.5158 253.676 37.5158 257.813C37.5158 261.953 40.8674 265.309 45.008 265.309Z" fill="#04DBEC"/>
<path d="M184.341 250.32C180.2 250.32 176.848 253.676 176.848 257.813C176.848 261.953 180.2 265.309 184.341 265.309H197.434C201.575 265.309 204.931 261.953 204.931 257.813C204.931 253.676 201.575 250.32 197.434 250.32H184.341Z" fill="#04DBEC"/>
<path d="M164.618 257.813C164.618 253.676 161.262 250.32 157.126 250.32H92.805C88.6644 250.32 85.3128 253.676 85.3128 257.813C85.3128 261.953 88.6644 265.309 92.805 265.309H157.126C161.262 265.309 164.618 261.953 164.618 257.813Z" fill="#04DBEC"/>
<path d="M213.704 257.813C213.704 261.953 217.06 265.309 221.196 265.309H245.724C249.864 265.309 253.22 261.953 253.22 257.813C253.22 253.676 249.864 250.32 245.724 250.32H221.196C217.06 250.32 213.704 253.676 213.704 257.813Z" fill="#04DBEC"/>
<path d="M172.895 164.765H198.766C202.907 164.765 206.262 161.41 206.262 157.269C206.262 153.132 202.907 149.777 198.766 149.777H172.895C168.755 149.777 165.399 153.132 165.399 157.269C165.399 161.41 168.755 164.765 172.895 164.765Z" fill="#04DBEC"/>
<path d="M227.743 164.765H385.599C389.74 164.765 393.091 161.41 393.091 157.269C393.091 153.132 389.74 149.777 385.599 149.777H227.743C223.602 149.777 220.247 153.132 220.247 157.269C220.247 161.41 223.602 164.765 227.743 164.765Z" fill="#04DBEC"/>
<path d="M361.622 182.746H297.677C293.54 182.746 290.185 186.101 290.185 190.242C290.185 194.379 293.54 197.734 297.677 197.734H361.622C365.759 197.734 369.115 194.379 369.115 190.242C369.115 186.101 365.759 182.746 361.622 182.746Z" fill="#04DBEC"/>
<path d="M273.7 182.746H251.72C247.579 182.746 244.228 186.101 244.228 190.242C244.228 194.379 247.579 197.734 251.72 197.734H273.7C277.841 197.734 281.193 194.379 281.193 190.242C281.193 186.101 277.841 182.746 273.7 182.746Z" fill="#04DBEC"/>
<path d="M172.895 197.734H226.743C230.88 197.734 234.235 194.379 234.235 190.242C234.235 186.101 230.88 182.746 226.743 182.746H172.895C168.755 182.746 165.399 186.101 165.399 190.242C165.399 194.379 168.755 197.734 172.895 197.734Z" fill="#04DBEC"/>
<path d="M157.219 281.66H106.743C102.602 281.66 99.2466 285.016 99.2466 289.152C99.2466 293.289 102.602 296.645 106.743 296.645H157.219C161.356 296.645 164.712 293.289 164.712 289.152C164.712 285.016 161.356 281.66 157.219 281.66Z" fill="#04DBEC"/>
<path d="M83.7894 281.66H45.008C40.8674 281.66 37.5158 285.016 37.5158 289.152C37.5158 293.289 40.8674 296.645 45.008 296.645H83.7894C87.9301 296.645 91.2816 293.289 91.2816 289.152C91.2816 285.016 87.9301 281.66 83.7894 281.66Z" fill="#04DBEC"/>
<path d="M248.724 281.66H182.782C178.641 281.66 175.29 285.016 175.29 289.152C175.29 293.289 178.641 296.645 182.782 296.645H248.724C252.86 296.645 256.216 293.289 256.216 289.152C256.216 285.016 252.86 281.66 248.724 281.66Z" fill="#04DBEC"/>
<path d="M337.9 243.168H301.841C297.704 243.168 294.349 246.523 294.349 250.66C294.349 254.801 297.704 258.156 301.841 258.156H337.9C342.04 258.156 345.392 254.801 345.392 250.66C345.392 246.523 342.04 243.168 337.9 243.168Z" fill="#04DBEC"/>
<path d="M400.47 258.156H451.373C455.514 258.156 458.869 254.801 458.869 250.66C458.869 246.523 455.514 243.168 451.373 243.168H400.47C396.33 243.168 392.978 246.523 392.978 250.66C392.978 254.801 396.334 258.156 400.47 258.156Z" fill="#04DBEC"/>
<path d="M375.017 243.168H363.353C359.212 243.168 355.857 246.523 355.857 250.66C355.857 254.801 359.212 258.156 363.353 258.156H375.017C379.158 258.156 382.509 254.801 382.509 250.66C382.509 246.523 379.158 243.168 375.017 243.168Z" fill="#04DBEC"/>
<path d="M301.841 339.813H337.9C342.04 339.813 345.392 336.461 345.392 332.321C345.392 328.184 342.04 324.828 337.9 324.828H301.841C297.704 324.828 294.349 328.184 294.349 332.321C294.349 336.461 297.704 339.813 301.841 339.813Z" fill="#04DBEC"/>
<path d="M400.47 339.813H451.373C455.514 339.813 458.869 336.461 458.869 332.321C458.869 328.184 455.514 324.828 451.373 324.828H400.47C396.33 324.828 392.978 328.184 392.978 332.321C392.978 336.461 396.334 339.813 400.47 339.813Z" fill="#04DBEC"/>
<path d="M363.353 339.813H375.017C379.158 339.813 382.513 336.461 382.513 332.321C382.513 328.184 379.158 324.828 375.017 324.828H363.353C359.212 324.828 355.861 328.184 355.861 332.321C355.861 336.461 359.212 339.813 363.353 339.813Z" fill="#04DBEC"/>
<path d="M337.9 406.489H301.841C297.704 406.489 294.349 409.844 294.349 413.981C294.349 418.118 297.704 421.473 301.841 421.473H337.9C342.04 421.473 345.392 418.118 345.392 413.981C345.392 409.844 342.04 406.489 337.9 406.489Z" fill="#04DBEC"/>
<path d="M451.373 406.489H400.47C396.33 406.489 392.978 409.844 392.978 413.981C392.978 418.118 396.33 421.473 400.47 421.473H451.373C455.514 421.473 458.869 418.118 458.869 413.981C458.869 409.844 455.514 406.489 451.373 406.489Z" fill="#04DBEC"/>
<path d="M375.017 406.489H363.353C359.212 406.489 355.857 409.844 355.857 413.981C355.857 418.118 359.212 421.473 363.353 421.473H375.017C379.158 421.473 382.509 418.118 382.509 413.981C382.509 409.844 379.158 406.489 375.017 406.489Z" fill="#04DBEC"/>
<path d="M479.025 0.999023H32.9806C14.7969 0.999023 0 15.7921 0 33.9796V396.548C0 414.731 14.7969 429.524 32.9806 429.524H61.1799C65.3167 429.524 68.6721 426.173 68.6721 422.032C68.6721 417.895 65.3167 414.54 61.1799 414.54H32.9806C23.0587 414.54 14.9883 406.469 14.9883 396.548V368.122H287.986V381.036H282.044C273.915 381.036 267.306 387.645 267.306 395.774V414.54H106.739C102.602 414.54 99.2465 417.895 99.2465 422.032C99.2465 426.173 102.602 429.524 106.739 429.524H178.786V456.399H156.161C141.067 456.399 128.79 468.681 128.79 483.771V499.958C128.79 506.845 134.391 512.446 141.278 512.446H370.154C377.041 512.446 382.642 506.845 382.642 499.958V483.771C382.642 468.681 370.365 456.399 355.271 456.399H332.646V446.927H471.174C479.299 446.927 485.908 440.317 485.908 432.188V428.661C500.514 425.27 511.432 412.165 511.432 396.548L511.998 33.9757C512.002 15.7921 497.209 0.999023 479.025 0.999023ZM282.294 350.282V314.364H470.924V350.282H282.294ZM302.97 299.375V283.61H450.244V299.375H302.97ZM450.244 365.266V381.036H302.97V365.266H450.244ZM193.77 429.524H267.306V432.192C267.306 440.317 273.915 446.927 282.044 446.927H317.661V456.399H193.77V429.524ZM355.275 471.388C362.103 471.388 367.658 476.942 367.658 483.771V497.462H143.774V483.771C143.774 476.942 149.333 471.388 156.161 471.388H355.275ZM470.924 431.938H282.294V396.024H470.924V431.938ZM496.447 396.548C496.447 403.805 492.119 410.059 485.912 412.899V395.77C485.912 387.645 479.299 381.036 471.174 381.036H465.232V368.122H496.447V396.548ZM496.447 353.137H485.666C485.818 352.29 485.912 314.114 485.912 314.114C485.912 305.985 479.299 299.375 471.174 299.375H465.232V283.61H471.174C479.299 283.61 485.912 276.996 485.912 268.871V232.453C485.912 224.328 479.299 217.715 471.174 217.715H428.849C424.709 217.715 421.357 221.07 421.357 225.211C421.357 229.348 424.709 232.703 428.849 232.703H470.924V268.621H282.294V232.703H382.224C386.365 232.703 389.716 229.348 389.716 225.211C389.716 221.07 386.365 217.715 382.224 217.715H282.044C273.915 217.715 267.306 224.328 267.306 232.453V268.871C267.306 276.996 273.915 283.61 282.044 283.61H287.986V299.375H282.044C273.915 299.375 267.306 305.989 267.306 314.114C267.306 314.114 267.399 352.29 267.552 353.137H14.9883V102.929H496.447V353.137ZM496.447 87.9408H15.5391V33.9757C15.5391 24.0577 23.6095 15.9874 33.5314 15.9874H478.455C488.377 15.9874 496.447 24.0577 496.447 33.9796V87.9408Z" fill="#04DBEC"/>
<path d="M55.262 29.7609C43.1369 29.7609 33.2736 39.6242 33.2736 51.7492C33.2736 63.8743 43.1369 73.7415 55.262 73.7415C67.387 73.7415 77.2543 63.8743 77.2543 51.7492C77.2543 39.6242 67.387 29.7609 55.262 29.7609ZM55.262 58.7532C51.4026 58.7532 48.2581 55.6125 48.2581 51.7492C48.2581 47.8898 51.4026 44.7453 55.262 44.7453C59.1253 44.7453 62.2659 47.8898 62.2659 51.7492C62.2659 55.6125 59.1253 58.7532 55.262 58.7532Z" fill="#04DBEC"/>
<path d="M111.25 29.7609C99.1253 29.7609 89.2581 39.6242 89.2581 51.7492C89.2581 63.8743 99.1253 73.7415 111.25 73.7415C123.375 73.7415 133.239 63.8743 133.239 51.7492C133.239 39.6242 123.372 29.7609 111.25 29.7609ZM111.25 58.7532C107.387 58.7532 104.246 55.6125 104.246 51.7492C104.246 47.8898 107.387 44.7453 111.25 44.7453C115.11 44.7453 118.254 47.8898 118.254 51.7492C118.254 55.6125 115.11 58.7532 111.25 58.7532Z" fill="#04DBEC"/>
<path d="M167.235 29.7609C155.11 29.7609 145.247 39.6242 145.247 51.7492C145.247 63.8743 155.11 73.7415 167.235 73.7415C179.36 73.7415 189.227 63.8743 189.227 51.7492C189.227 39.6242 179.36 29.7609 167.235 29.7609ZM167.235 58.7532C163.376 58.7532 160.231 55.6125 160.231 51.7492C160.231 47.8898 163.376 44.7453 167.235 44.7453C171.098 44.7453 174.239 47.8898 174.239 51.7492C174.239 55.6125 171.098 58.7532 167.235 58.7532Z" fill="#04DBEC"/>
</g>
<defs>
<clipPath id="clip0">
<rect width="512" height="512" fill="white"/>
</clipPath>
</defs>
</svg>
